# xmcd
#
# Track frame offsets:
#	150
#	15887
#	32720
#	54975
#	86350
#	101670
#	124592
#	148107
#	170877
#	202172
#	229150
#
# Disc length: 3297 seconds
#
# Revision: 1
# Processed by: cddbd v1.5.1PL0 Copyright (c) Steve Scherf et al.
# Submitted via: CDex 1.50Beta5
#
DISCID=8f0cdf0b
DTITLE=世良公則 - BE FINE ! LIVE
DYEAR=1900
DGENRE=Rock
TTITLE0=T.V.キッズ
TTITLE1=エルビスが笑った
TTITLE2=Chicken Step
TTITLE3=Yellow
TTITLE4=銃爪
TTITLE5=10カウントにはまだ遠い
TTITLE6=Sweet Little Dancing
TTITLE7=Say Yeah〜とんだ時代に生まれちまった〜
TTITLE8=バラードが聴こえる
TTITLE9=ストーンズが聞こえた街
TTITLE10=Darlin'
EXTD=
EXTT0=
EXTT1=
EXTT2=
EXTT3=
EXTT4=
EXTT5=
EXTT6=
EXTT7=
EXTT8=
EXTT9=
EXTT10=
PLAYORDER=
